# xmcd
#
# Track frame offsets:
# 183
# 19110
# 30643
# 40758
# 51540
# 71508
# 86253
# 104538
# 116040
# 129965
# 138840
# 154015
# 175080
# 188648
# 203300
# 230210
#
# Disc length: 3237 seconds
#
# Revision: 0
# Processed by: cddbd v1.4PL0 Copyright (c) Steve Scherf et al.
# Submitted via: Audion 3.0.2 (http://www.panic.com/audion/)
#
DISCID=ce0ca310
DTITLE=Diverse - Het Grote Operette Festival
DYEAR=1900
DGENRE=
TTITLE0=Machen wir's den schwalben nach
TTITLE1=Einmal mocht ich wieder tanzen
TTITLE2=a
TTITLE3=a
TTITLE4=a
TTITLE5=a
TTITLE6=Zwei marchenaugen
TTITLE7=a
TTITLE8=a
TTITLE9=a
TTITLE10=a
TTITLE11=a
TTITLE12=Glucklich ist, wieder vergisst
TTITLE13=Heut ist der schonste tag in meinem leben
TTITLE14=Reich mir zum abschied noch einmal die hande
TTITLE15=a
EXTD=
EXTT0=
EXTT1=
EXTT2=
EXTT3=
EXTT4=
EXTT5=
EXTT6=
EXTT7=
EXTT8=
EXTT9=
EXTT10=
EXTT11=
EXTT12=
EXTT13=
EXTT14=
EXTT15=
PLAYORDER=
